<svg width="444.85" height="100" version="1.1" viewBox="0 0 444.85 100" xmlns="http://www.w3.org/2000/svg">
 <defs>
  <marker id="marker110282882" overflow="visible" orient="auto">
   <path transform="scale(.6) rotate(180) translate(0)" d="m8.7186 4.0337-10.926-4.0177 10.926-4.0177c-1.7455 2.3721-1.7354 5.6175-6e-7 8.0354z" fill="#fff" fill-rule="evenodd" stroke="#fff" stroke-linejoin="round" stroke-width=".625"/>
  </marker>
  <marker id="marker1102826195" overflow="visible" orient="auto">
   <path transform="scale(.6) rotate(180) translate(0)" d="m8.7186 4.0337-10.926-4.0177 10.926-4.0177c-1.7455 2.3721-1.7354 5.6175-6e-7 8.0354z" fill="#fff" fill-rule="evenodd" stroke="#fff" stroke-linejoin="round" stroke-width=".625"/>
  </marker>
  <marker id="marker1102823612" overflow="visible" orient="auto">
   <path transform="scale(.6) rotate(180) translate(0)" d="m8.7186 4.0337-10.926-4.0177 10.926-4.0177c-1.7455 2.3721-1.7354 5.6175-6e-7 8.0354z" fill="#fff" fill-rule="evenodd" stroke="#fff" stroke-linejoin="round" stroke-width=".625"/>
  </marker>
  <marker id="marker1102829576" overflow="visible" orient="auto">
   <path transform="scale(.6) rotate(180) translate(0)" d="m8.7186 4.0337-10.926-4.0177 10.926-4.0177c-1.7455 2.3721-1.7354 5.6175-6e-7 8.0354z" fill="#fff" fill-rule="evenodd" stroke="#fff" stroke-linejoin="round" stroke-width=".625"/>
  </marker>
  <marker id="marker1102824438" overflow="visible" orient="auto">
   <path transform="scale(.6) rotate(180) translate(0)" d="m8.7186 4.0337-10.926-4.0177 10.926-4.0177c-1.7455 2.3721-1.7354 5.6175-6e-7 8.0354z" fill="#fff" fill-rule="evenodd" stroke="#fff" stroke-linejoin="round" stroke-width=".625"/>
  </marker>
 </defs>
 <g transform="translate(1.7002 -.0044502)">
  <g transform="matrix(.98523 0 0 .97489 173.65 1.7473)" stroke-width="1.0204">
   <rect x="-31.616" y=".33869" width="141.34" height="43.016" fill="#eee" fill-opacity=".33" pointer-events="all" stroke="#fff" stroke-width="1.0204"/>
   <text x="39.06506" y="19.815275" fill="#1a1a1a" font-family="Exo" font-size="7.3742px" stroke-width="1.0204" text-anchor="middle"><tspan x="39.06506" y="19.815275">HTTP Request</tspan><tspan x="39.06506" y="29.217039"><tspan fill="#aa0000" font-family="Exo" font-weight="600">If-None-Match</tspan>: 33a64df551425f</tspan></text>
   <rect x="-31.616" y="55.645" width="141.34" height="43.016" fill="#eee" fill-opacity=".33" pointer-events="all" stroke="#fff" stroke-width="1.0204"/>
   <text x="38.938923" y="65.210724" fill="#1a1a1a" font-family="Exo" font-size="7.3742px" stroke-width="1.0204" text-anchor="middle"><tspan x="38.938923" y="65.210724">HTTP Response</tspan><tspan x="38.938923" y="74.612465">Status : <tspan fill="#aa0000" font-family="Exo" font-weight="600" stroke-width="1.0204">304</tspan></tspan><tspan x="38.938927" y="84.014198"><tspan fill="#aa0000" font-family="Exo" font-weight="600">ETag</tspan>: 33a64df551425f</tspan><tspan x="38.938923" y="93.415939">Cache-Control: max-age=3600</tspan></text>
   <rect x="-172.95" y="37.21" width="24.581" height="24.581" fill="none" pointer-events="all" stroke-width="1.726"/>
   <path d="m-86.923 64.73v6.0107c0 2.107-1.5417 3.8032-3.4567 3.8032h-66.835c-1.915 0-3.4567-1.6962-3.4567-3.8032v-6.5555" fill="none" marker-end="url(#marker1102823612)" stop-color="#000000" stroke="#fff" stroke-width="1.0204"/>
   <rect x="177.32" y="31.065" width="29.497" height="35.027" fill="none" pointer-events="all" stroke-width="1.726"/>
   <g transform="matrix(.80315 0 0 .80315 37.798 12.536)" pointer-events="all" stroke-width="2.149">
    <path d="m177.32 63.363v-30.517c0-0.92792 0.85418-1.7821 1.7882-1.7821h12.966c0.91563 0 1.776 0.84189 1.776 1.7882v15.246c-2.5871 1.1491-4.6027 3.4536-5.4508 6.0407h-7.8658v1.3827h7.5094c-0.13519 0.81116-0.21508 1.7452-0.11675 2.7653h-7.3926v1.3888h7.6016c0.34413 1.4257 0.92178 2.6424 1.6961 3.6871zm3.2139-26.762h10.103v-1.3827h-10.103z" fill="#eee"/>
    <path d="m201.11 49.144c1.1614 0.41173 1.9972 1.0262 2.71 1.7145-0.40558 0.22737-0.83574 0.4486-1.3335 0.64524-0.49776-1.2045-0.94636-1.8435-1.3765-2.3597zm1.7452 3.2324c0.60837-0.25195 1.1799-0.54078 1.7022-0.86647 1.2352 1.4134 1.5117 2.3597 1.8313 3.2631-0.86647 0.59608-1.7821 1.1061-2.7899 1.4195-0.11061-1.1553-0.27038-2.3536-0.74356-3.8161zm0.75585 4.7195c1.1614-0.34413 2.1447-0.81116 2.9558-1.3827 0.25195 1.5977 0.14134 2.5502-0.0307 3.4044-1.3089 0.98323-2.3413 1.4072-3.3553 1.7944 0.14134-0.81116 0.27039-0.43631 0.43016-3.8161zm-0.72513 4.9407c0.92792-0.29497 1.8743-0.61452 3.2385-1.4871-1.2045 2.8882-3.3 4.3815-5.1251 5.0206 0.66368-0.74971 1.3212-1.6653 1.8866-3.5335zm-1.0877 0.27653c-0.89719 2.3905-2.1938 3.4843-3.3061 3.7363v-3.2877c1.1492-0.03073 2.2553-0.17206 3.3061-0.4486zm-3.3122-0.44245v-3.8223c1.1184 0.03073 2.5933-0.22123 4.1848-0.57764 6e-3 1.6223-0.23351 2.7653-0.49161 3.8592-1.4871 0.39944-2.6363 0.5039-3.6932 0.54077zm0.0492-4.7748v-3.8837c1.1737-0.05531 2.3352-0.21508 3.4474-0.55306 0.381 1.1246 0.58993 2.4458 0.73741 3.8284-1.2905 0.37486-2.6977 0.55306-4.1848 0.60837zm-0.0922-8.4926h0.36257c0.82959 0.27653 1.4195 0.92792 1.7575 1.3581 0.50391 0.6391 0.78044 1.229 1.0447 1.819-0.84189 0.23966-1.8313 0.46089-3.1648 0.51005zm-0.86647 3.7301c-1.0631-0.04302-2.0955-0.21508-3.1156-0.51005 0.33799-0.84803 0.78044-1.6162 1.3888-2.2676 0.36871-0.36871 0.76815-0.71284 1.3581-0.90948h0.36871zm0.043 4.7625c-1.5793-0.05531-2.9681-0.27039-4.1849-0.60223 0.0799-1.1123 0.11061-2.1692 0.73742-3.8284 1.3765 0.43016 2.962 0.55306 3.4536 0.54078zm-0.043 0.91563v3.8284c-1.2167 0.03073-2.4212-0.17821-3.6318-0.49161-0.38714-1.3581-0.55306-2.6609-0.54692-3.9206 1.3704 0.37486 2.7653 0.55306 4.1787 0.58379zm0 4.7994v3.2815c-0.65753-0.14134-1.1983-0.49776-1.6715-0.97708-0.762-0.78044-1.272-1.7268-1.6469-2.667 1.1 0.22123 2.2 0.38715 3.3184 0.36256zm-4.3815-0.70055c0.62066 1.905 1.2843 2.71 1.9419 3.4782-2.8944-1.0938-4.3078-3.091-5.0882-4.7932 1.0324 0.54078 2.0586 1.0754 3.1463 1.3151zm-3.6195-2.7162c-0.28882-1.0508-0.36871-2.243-0.12905-3.681 0.83574 0.51619 1.7821 1.0078 3.0234 1.4257-6e-3 1.4011 0.12905 2.6977 0.41787 3.8715-0.91563-0.2581-1.9542-0.70669-3.3122-1.6162zm0.14134-4.615c0.381-1.2843 1.0201-2.3536 1.8436-3.2692 0.59608 0.40558 1.143 0.61452 1.6961 0.86647-0.46088 1.2659-0.66368 2.667-0.73127 3.8346-0.89105-0.31955-1.7698-0.65139-2.8083-1.4318zm2.4826-3.9636c0.93407-0.79887 1.862-1.3335 2.7592-1.6653-0.46088 0.54077-0.92792 1.2352-1.4257 2.3106-0.5039-0.21508-0.9525-0.43016-1.3335-0.64524z" fill="#d45500"/>
   </g>
   <rect x="171.17" y="74.081" width="24.581" height="12.29" fill="none" pointer-events="all" stroke-width="1.726"/>
   <text x="194.21861" y="82.376625" fill="#ffffff" font-family="Helvetica" font-size="7.3742px" stroke-width="1.726" text-anchor="end"><tspan font-family="Exo" font-style="italic" stroke-width="1.0204">Not modified</tspan></text>
   <rect x="-99.213" y="37.21" width="24.581" height="24.581" fill="none" pointer-events="all" stroke-width="1.726"/>
   <rect x="-86.308" y="12.629" width="24.581" height="12.29" fill="none" pointer-events="all" stroke-width="1.726"/>
   <text x="-85.386345" y="20.924988" fill="#ffffff" font-family="Helvetica" font-size="7.3742px" stroke-width="1.726"><tspan font-family="Exo" font-style="italic" stroke-width="1.0204">Stale</tspan></text>
   <rect x="-160.66" y="12.629" width="24.581" height="12.29" fill="none" pointer-events="all" stroke-width="1.726"/>
   <text x="-159.74283" y="20.924988" fill="#ffffff" font-family="Helvetica" font-size="7.3742px" stroke-width="1.726"><tspan font-family="Exo" stroke-width="1.0204">GET</tspan></text>
   <g transform="matrix(.61452 0 0 .61452 -172.95 .33869)" pointer-events="all" stroke="#d45500" stroke-linecap="round" stroke-linejoin="round" stroke-miterlimit="10" stroke-width="1.9095">
    <path d="m70 100 10.52 5.98 7.19 12.25v22.37l-17.71-10.18z" fill="#fff"/>
    <path d="m80.69 106.27v7.88l7.02 4.02" fill="none"/>
   </g>
   <text x="-86.956619" y="51.993748" fill="#ffffff" font-family="Exo" font-size="6.795px" stroke-width="1.0204" text-align="center" text-anchor="middle" style="line-height:1.25" xml:space="preserve"><tspan x="-86.956619" y="51.993748" stroke-width="1.0204">CACHE</tspan></text>
   <path d="m-160.67 35.938v-8.4872c0-2.1069 1.5417-3.8032 3.4567-3.8032h66.835c1.915 0 3.4567 1.6962 3.4567 3.8032v8.4872" fill="none" marker-end="url(#marker110282882)" stop-color="#000000" stroke="#fff" stroke-width="1.0204"/>
   <path d="m-94.88 37.977h15.915c1.9754 0 3.5657 1.5903 3.5657 3.5656v15.914c0 1.9754-1.5903 3.5656-3.5657 3.5656h-15.915c-1.9754 0-3.5657-1.5903-3.5657-3.5656v-15.914c0-1.9754 1.5903-3.5656 3.5657-3.5656z" fill="#eee" fill-opacity=".33" stop-color="#000000" stroke="#fff" stroke-width="1.0204" style="-inkscape-stroke:none;font-variation-settings:normal"/>
   <path d="m-86.923 35.938v-8.4872c0-2.1069 1.5417-3.8032 3.4567-3.8032h49.94" fill="none" marker-end="url(#marker1102826195)" stop-color="#000000" stroke="#fff" stroke-width="1.0204"/>
   <path d="m-156.34 37.972c1.6162 0.58379 2.7899 1.438 3.7731 2.415-0.55921 0.3134-1.1614 0.63295-1.8558 0.90948-0.70054-1.6961-1.3151-2.5994-1.9173-3.3245zm2.4335 4.5413c0.84189-0.34413 1.6408-0.74356 2.372-1.2106 1.7206 1.9849 2.1139 3.3122 2.5625 4.5781-1.2167 0.84189-2.4888 1.5609-3.9083 2.0033-0.14748-1.6285-0.36871-3.3122-1.0262-5.3709zm1.0508 6.6429c1.6162-0.49161 2.9927-1.143 4.1296-1.948 0.35028 2.243 0.19665 3.5888-0.043 4.7748-1.8313 1.3888-3.2754 1.9849-4.6826 2.5257 0.19665-1.1369 0.37486-0.61452 0.59608-5.3524zm-1.014 6.9317c1.2966-0.40558 2.6178-0.85418 4.529-2.0894-1.6899 4.0681-4.6089 6.1636-7.1591 7.0608 0.92792-1.057 1.8436-2.3475 2.6301-4.9714zm-1.5179 0.39944c-1.2536 3.3553-3.0541 4.8854-4.6089 5.2418v-4.6089c1.6039-0.04916 3.1463-0.24581 4.6089-0.63295zm-4.6212-0.62681v-5.3647c1.5732 0.03687 3.6256-0.31955 5.8379-0.82345 6e-3 2.2799-0.3257 3.8837-0.68826 5.4262-2.0709 0.56536-3.6687 0.71284-5.1496 0.762zm0.0799-6.7105v-5.4508c1.6408-0.07989 3.2446-0.30726 4.7994-0.78044 0.52848 1.5793 0.82345 3.4351 1.0262 5.377-1.7882 0.52848-3.7547 0.78044-5.8256 0.85418zm-0.1352-11.94h0.51005c1.1614 0.38715 1.9726 1.3089 2.4458 1.9111 0.70669 0.90334 1.0938 1.7329 1.4626 2.5564-1.186 0.34413-2.5625 0.65139-4.4184 0.71898zm-1.2167 5.2541c-1.4687-0.0676-2.919-0.30726-4.3446-0.72513 0.47932-1.1799 1.0938-2.2737 1.9419-3.1893 0.5162-0.51619 1.0754-1.0017 1.8989-1.272h0.5039zm0.0615 6.6921c-2.2061-0.08603-4.1296-0.381-5.8318-0.85418 0.11676-1.5609 0.15978-3.048 1.0262-5.377 1.9173 0.60837 4.1357 0.78044 4.8117 0.76814zm-0.0615 1.2843 6e-3 5.377c-1.6899 0.04302-3.3798-0.25195-5.0698-0.68826-0.53463-1.9173-0.762-3.7424-0.75586-5.5122 1.9112 0.53463 3.853 0.78044 5.8195 0.82345zm0 6.7474v4.6027c-0.90334-0.19664-1.6592-0.70055-2.329-1.3765-1.0508-1.0938-1.7637-2.415-2.2921-3.7424 1.5363 0.3134 3.0726 0.54692 4.6212 0.51619zm-6.1083-0.98937c0.86647 2.6731 1.7882 3.81 2.71 4.8854-4.0374-1.5363-6.0038-4.3385-7.0977-6.729 1.438 0.74971 2.8698 1.5056 4.3876 1.8435zm-5.0513-3.8223c-0.40558-1.4687-0.51619-3.1525-0.17821-5.1681 1.1737 0.73127 2.4826 1.4195 4.2156 2.0033-6e-3 1.9787 0.18435 3.7916 0.58379 5.4323-1.272-0.35642-2.7285-0.98937-4.6212-2.2676zm0.20279-6.4831c0.53463-1.8005 1.4195-3.3 2.5748-4.5904 0.82959 0.56536 1.5854 0.86647 2.3597 1.2229-0.6391 1.7698-0.92177 3.7363-1.0201 5.377-1.2352-0.44245-2.4704-0.90948-3.9145-2.0095zm3.4597-5.5675c1.3151-1.1184 2.5933-1.8743 3.8469-2.3475-0.63909 0.76814-1.2905 1.7452-1.9849 3.2508-0.70055-0.30111-1.3335-0.60223-1.862-0.90334z" fill="#d45500" pointer-events="all" stroke-width="1.726"/>
   <path d="m-31.616 74.544h-51.85c-1.915 0-3.4567-1.6962-3.4567-3.8032v-7.8155" fill="none" marker-end="url(#marker1102824438)" stop-color="#000000" stroke="#fff" stroke-dasharray="2.04073, 2.04073" stroke-width="1.0204" style="-inkscape-stroke:none;font-variation-settings:normal"/>
   <path d="m109.72 23.648h73.799c1.915 0 3.4567 1.6962 3.4567 3.8032v8.6881" fill="none" marker-end="url(#marker1102829576)" stop-color="#000000" stroke="#fff" stroke-width="1.0204"/>
   <path d="m187.32 63.458v7.2827c0 2.107-1.5417 3.8032-3.4567 3.8032h-72.334" fill="none" marker-end="url(#marker1102824438)" stop-color="#000000" stroke="#fff" stroke-dasharray="2.04073, 2.04073" stroke-width="1.0204" style="-inkscape-stroke:none;font-variation-settings:normal"/>
   <g transform="translate(0,5.5306)">
    <g transform="translate(5.1797)">
     <rect x="210.33" y="58.615" width="31.993" height="14.496" rx="1.2052" ry="1.2052" fill="#fff" stop-color="#000000" stroke-width="1.0204" style="-inkscape-stroke:none"/>
     <text x="226.10216" y="64.10025" fill="#000000" font-family="Helvetica" font-size="4.9161px" font-style="italic" stroke-width="1.726" text-anchor="middle"><tspan x="226.10216" y="64.10025"><tspan fill="#000000" font-family="Exo" font-style="italic" stroke-width="1.0204">ETag</tspan></tspan><tspan x="226.10216" y="70.386261"><tspan fill="#000000" font-family="Exo" font-style="italic" stroke-width="1.0204">computation</tspan></tspan></text>
    </g>
    <rect x="248.3" y="58.288" width="20.211" height="18.866" fill="none" pointer-events="all" stroke-width="1.726"/>
    <path d="m223.84 44.299-2.1165-0.87146c-0.29878-0.17429-0.43573-0.42329-0.31124-0.77187l0.79677-1.9172c0.18679-0.28634 0.41083-0.46063 0.77187-0.31124l1.967 0.99596c0.63492-0.74697 1.3197-1.4815 2.079-2.1288l-0.85902-2.1165c-0.0622-0.24898-0.0871-0.49799 0.2739-0.73451l1.9795-0.83413c0.37348-0.12449 0.58513 0.0498 0.72208 0.26144l0.88392 2.1663c0.8839-0.17429 1.7678-0.26144 2.8012 0.0498l0.89637-2.191c0.19914-0.31124 0.43573-0.39837 0.74697-0.28634l1.967 0.83413c0.32367 0.19919 0.36101 0.44817 0.27388 0.70962l-0.88393 2.1663c0.77187 0.62248 1.494 1.2699 2.0543 2.0168l2.1288-0.85903c0.37348-0.11205 0.61002 0.0249 0.74697 0.32368l0.83411 1.967c0.0373 0.28634-0.0122 0.53533-0.31124 0.68472l-2.1414 0.87146c0.0997 0.84657 0.0871 1.9048 0 2.8385l2.1414 0.87146c0.2988 0.17429 0.42329 0.41083 0.33614 0.72207l-0.78431 1.8425c-0.14931 0.23654-0.36104 0.36104-0.68474 0.28634l-2.1661-0.88392c-0.57268 0.78431-1.2948 1.4815-2.0916 2.079l0.85901 2.1288c0.13695 0.33614-0.0373 0.62248-0.23653 0.72207l-2.0916 0.87146c-0.28634 0.0498-0.53532 0.03736-0.65983-0.32368l-0.87147-2.1663c-0.79677 0.22409-1.7927 0.28634-2.8012 0.0249l-0.87147 2.1414c-0.13695 0.22409-0.29878 0.41083-0.68471 0.32368l-2.0417-0.85902c-0.28635-0.19919-0.41084-0.44819-0.23655-0.79677l0.97106-1.9297c-0.85901-0.64738-1.5686-1.3321-2.1288-2.0543l-2.079 0.84657c-0.3237 0.11205-0.59758 0.03736-0.78433-0.26144l-0.83411-1.9919c-0.0748-0.26144-0.0121-0.57268 0.28634-0.72207l2.1661-0.93372c-0.0997-0.93372-0.0997-1.8674-0.0121-2.8012zm2.3156 1.357c0 3.3116 2.7265 5.3658 5.3907 5.3658 2.8883 0 5.2787-2.4526 5.2787-5.316 0-3.0626-2.577-5.3533-5.2661-5.3533-2.6394 0-5.4031 1.9795-5.4031 5.3034z" fill="#fff" stroke-width="1.0204"/>
    <rect x="202.51" y="36.595" width="15.363" height="20.279" fill="none" pointer-events="all" stroke-width="1.726"/>
    <text x="210.19604" y="51.036289" fill="#ffffff" font-family="Helvetica" font-size="14.748px" font-weight="bold" opacity=".5" stroke-width="1.726" text-anchor="middle"><tspan fill="#ffffff" font-family="Exo" font-weight="bold" stroke-width="1.0204">?</tspan></text>
   </g>
  </g>
 </g>
</svg>
