<svg width="444.85" height="100" version="1.1" viewBox="0 0 444.85 100" xmlns="http://www.w3.org/2000/svg">
 <defs>
  <marker id="marker110282882" overflow="visible" orient="auto">
   <path transform="scale(.6) rotate(180) translate(0)" d="m8.7186 4.0337-10.926-4.0177 10.926-4.0177c-1.7455 2.3721-1.7354 5.6175-6e-7 8.0354z" fill="#fff" fill-rule="evenodd" stroke="#fff" stroke-linejoin="round" stroke-width=".625"/>
  </marker>
  <marker id="marker1102826195" overflow="visible" orient="auto">
   <path transform="scale(.6) rotate(180) translate(0)" d="m8.7186 4.0337-10.926-4.0177 10.926-4.0177c-1.7455 2.3721-1.7354 5.6175-6e-7 8.0354z" fill="#fff" fill-rule="evenodd" stroke="#fff" stroke-linejoin="round" stroke-width=".625"/>
  </marker>
  <marker id="marker1102826350" overflow="visible" orient="auto">
   <path transform="scale(.6) rotate(180) translate(0)" d="m8.7186 4.0337-10.926-4.0177 10.926-4.0177c-1.7455 2.3721-1.7354 5.6175-6e-7 8.0354z" fill="#fff" fill-rule="evenodd" stroke="#fff" stroke-linejoin="round" stroke-width=".625"/>
  </marker>
  <marker id="marker1102823612" overflow="visible" orient="auto">
   <path transform="scale(.6) rotate(180) translate(0)" d="m8.7186 4.0337-10.926-4.0177 10.926-4.0177c-1.7455 2.3721-1.7354 5.6175-6e-7 8.0354z" fill="#fff" fill-rule="evenodd" stroke="#fff" stroke-linejoin="round" stroke-width=".625"/>
  </marker>
  <marker id="marker1102829576" overflow="visible" orient="auto">
   <path transform="scale(.6) rotate(180) translate(0)" d="m8.7186 4.0337-10.926-4.0177 10.926-4.0177c-1.7455 2.3721-1.7354 5.6175-6e-7 8.0354z" fill="#fff" fill-rule="evenodd" stroke="#fff" stroke-linejoin="round" stroke-width=".625"/>
  </marker>
  <marker id="marker1102824438" overflow="visible" orient="auto">
   <path transform="scale(.6) rotate(180) translate(0)" d="m8.7186 4.0337-10.926-4.0177 10.926-4.0177c-1.7455 2.3721-1.7354 5.6175-6e-7 8.0354z" fill="#fff" fill-rule="evenodd" stroke="#fff" stroke-linejoin="round" stroke-width=".625"/>
  </marker>
  <marker id="marker11028244388659" overflow="visible" orient="auto">
   <path transform="scale(.6) rotate(180) translate(0)" d="m8.7186 4.0337-10.926-4.0177 10.926-4.0177c-1.7455 2.3721-1.7354 5.6175-6e-7 8.0354z" fill="#fff" fill-rule="evenodd" stroke="#fff" stroke-linejoin="round" stroke-width=".625"/>
  </marker>
  <marker id="marker11028244383634" overflow="visible" orient="auto">
   <path transform="scale(.6) rotate(180) translate(0)" d="m8.7186 4.0337-10.926-4.0177 10.926-4.0177c-1.7455 2.3721-1.7354 5.6175-6e-7 8.0354z" fill="#fff" fill-rule="evenodd" stroke="#fff" stroke-linejoin="round" stroke-width=".625"/>
  </marker>
  <marker id="marker11028244388348" overflow="visible" orient="auto">
   <path transform="scale(.6) rotate(180) translate(0)" d="m8.7186 4.0337-10.926-4.0177 10.926-4.0177c-1.7455 2.3721-1.7354 5.6175-6e-7 8.0354z" fill-rule="evenodd" stroke="#000" stroke-linejoin="round" stroke-width=".625"/>
  </marker>
 </defs>
 <g transform="translate(4.1907e-7 -.0044502)">
  <g transform="matrix(.98523 0 0 .97489 173.65 1.7473)" stroke-width="1.0204">
   <rect x="-31.616" y=".33869" width="141.34" height="43.016" fill="#eee" fill-opacity=".33" pointer-events="all" stroke="#fff" stroke-width="1.0204"/>
   <text x="38.798813" y="19.121996" fill="#1a1a1a" font-family="Exo" font-size="7.3742px" stroke-width="1.0204" text-anchor="middle"><tspan x="38.798813" y="19.121996">HTTP Request</tspan><tspan x="38.798813" y="28.523735"><tspan fill="#aa0000" font-family="Exo" font-weight="600">If-Modified-Since</tspan>: 2022-05-25T22:00</tspan></text>
   <rect x="-31.616" y="55.645" width="141.34" height="43.016" fill="#eee" fill-opacity=".33" pointer-events="all" stroke="#fff" stroke-width="1.0204"/>
   <text x="38.938923" y="65.210724" fill="#1a1a1a" font-family="Exo" font-size="7.3742px" stroke-width="1.0204" text-anchor="middle"><tspan x="38.938923" y="65.210724">HTTP Response</tspan><tspan x="38.938923" y="74.612465">Status : <tspan fill="#aa0000" font-family="Exo" font-weight="600" stroke-width="1.0204">304</tspan></tspan><tspan x="38.938927" y="84.014198"><tspan fill="#aa0000" font-family="Exo" font-weight="600" stroke-width="1.0204">Last-Modified</tspan>: 2022-05-25T22:00</tspan><tspan x="38.938923" y="93.415939" fill="#aa0000" font-weight="600">Cache-Control: max-age=0</tspan></text>
   <rect x="-172.95" y="37.21" width="24.581" height="24.581" fill="none" pointer-events="all" stroke-width="1.726"/>
   <path d="m-86.923 64.73v6.0107c0 2.107-1.5417 3.8032-3.4567 3.8032h-66.835c-1.915 0-3.4567-1.6962-3.4567-3.8032v-6.5555" fill="none" marker-end="url(#marker1102823612)" stop-color="#000000" stroke="#fff" stroke-width="1.0204"/>
   <rect x="177.32" y="31.065" width="29.497" height="35.027" fill="none" pointer-events="all" stroke-width="1.726"/>
   <g transform="matrix(.80315 0 0 .80315 37.798 12.536)" pointer-events="all" stroke-width="2.149">
    <path d="m177.32 63.363v-30.517c0-0.92792 0.85418-1.7821 1.7882-1.7821h12.966c0.91563 0 1.776 0.84189 1.776 1.7882v15.246c-2.5871 1.1491-4.6027 3.4536-5.4508 6.0407h-7.8658v1.3827h7.5094c-0.13519 0.81116-0.21508 1.7452-0.11675 2.7653h-7.3926v1.3888h7.6016c0.34413 1.4257 0.92178 2.6424 1.6961 3.6871zm3.2139-26.762h10.103v-1.3827h-10.103z" fill="#eee"/>
    <path d="m201.11 49.144c1.1614 0.41173 1.9972 1.0262 2.71 1.7145-0.40558 0.22737-0.83574 0.4486-1.3335 0.64524-0.49776-1.2045-0.94636-1.8435-1.3765-2.3597zm1.7452 3.2324c0.60837-0.25195 1.1799-0.54078 1.7022-0.86647 1.2352 1.4134 1.5117 2.3597 1.8313 3.2631-0.86647 0.59608-1.7821 1.1061-2.7899 1.4195-0.11061-1.1553-0.27038-2.3536-0.74356-3.8161zm0.75585 4.7195c1.1614-0.34413 2.1447-0.81116 2.9558-1.3827 0.25195 1.5977 0.14134 2.5502-0.0307 3.4044-1.3089 0.98323-2.3413 1.4072-3.3553 1.7944 0.14134-0.81116 0.27039-0.43631 0.43016-3.8161zm-0.72513 4.9407c0.92792-0.29497 1.8743-0.61452 3.2385-1.4871-1.2045 2.8882-3.3 4.3815-5.1251 5.0206 0.66368-0.74971 1.3212-1.6653 1.8866-3.5335zm-1.0877 0.27653c-0.89719 2.3905-2.1938 3.4843-3.3061 3.7363v-3.2877c1.1492-0.03073 2.2553-0.17206 3.3061-0.4486zm-3.3122-0.44245v-3.8223c1.1184 0.03073 2.5933-0.22123 4.1848-0.57764 6e-3 1.6223-0.23351 2.7653-0.49161 3.8592-1.4871 0.39944-2.6363 0.5039-3.6932 0.54077zm0.0492-4.7748v-3.8837c1.1737-0.05531 2.3352-0.21508 3.4474-0.55306 0.381 1.1246 0.58993 2.4458 0.73741 3.8284-1.2905 0.37486-2.6977 0.55306-4.1848 0.60837zm-0.0922-8.4926h0.36257c0.82959 0.27653 1.4195 0.92792 1.7575 1.3581 0.50391 0.6391 0.78044 1.229 1.0447 1.819-0.84189 0.23966-1.8313 0.46089-3.1648 0.51005zm-0.86647 3.7301c-1.0631-0.04302-2.0955-0.21508-3.1156-0.51005 0.33799-0.84803 0.78044-1.6162 1.3888-2.2676 0.36871-0.36871 0.76815-0.71284 1.3581-0.90948h0.36871zm0.043 4.7625c-1.5793-0.05531-2.9681-0.27039-4.1849-0.60223 0.0799-1.1123 0.11061-2.1692 0.73742-3.8284 1.3765 0.43016 2.962 0.55306 3.4536 0.54078zm-0.043 0.91563v3.8284c-1.2167 0.03073-2.4212-0.17821-3.6318-0.49161-0.38714-1.3581-0.55306-2.6609-0.54692-3.9206 1.3704 0.37486 2.7653 0.55306 4.1787 0.58379zm0 4.7994v3.2815c-0.65753-0.14134-1.1983-0.49776-1.6715-0.97708-0.762-0.78044-1.272-1.7268-1.6469-2.667 1.1 0.22123 2.2 0.38715 3.3184 0.36256zm-4.3815-0.70055c0.62066 1.905 1.2843 2.71 1.9419 3.4782-2.8944-1.0938-4.3078-3.091-5.0882-4.7932 1.0324 0.54078 2.0586 1.0754 3.1463 1.3151zm-3.6195-2.7162c-0.28882-1.0508-0.36871-2.243-0.12905-3.681 0.83574 0.51619 1.7821 1.0078 3.0234 1.4257-6e-3 1.4011 0.12905 2.6977 0.41787 3.8715-0.91563-0.2581-1.9542-0.70669-3.3122-1.6162zm0.14134-4.615c0.381-1.2843 1.0201-2.3536 1.8436-3.2692 0.59608 0.40558 1.143 0.61452 1.6961 0.86647-0.46088 1.2659-0.66368 2.667-0.73127 3.8346-0.89105-0.31955-1.7698-0.65139-2.8083-1.4318zm2.4826-3.9636c0.93407-0.79887 1.862-1.3335 2.7592-1.6653-0.46088 0.54077-0.92792 1.2352-1.4257 2.3106-0.5039-0.21508-0.9525-0.43016-1.3335-0.64524z" fill="#d45500"/>
   </g>
   <rect x="171.17" y="74.081" width="24.581" height="12.29" fill="none" pointer-events="all" stroke-width="1.726"/>
   <text x="194.21861" y="82.376625" fill="#ffffff" font-family="Helvetica" font-size="7.3742px" stroke-width="1.726" text-anchor="end"><tspan font-family="Exo" font-style="italic" stroke-width="1.0204">Not modified</tspan></text>
   <rect x="-99.213" y="37.21" width="24.581" height="24.581" fill="none" pointer-events="all" stroke-width="1.726"/>
   <rect x="-86.308" y="12.629" width="24.581" height="12.29" fill="none" pointer-events="all" stroke-width="1.726"/>
   <text x="-85.386345" y="20.924988" fill="#ffffff" font-family="Helvetica" font-size="7.3742px" stroke-width="1.726"><tspan font-family="Exo" font-style="italic" stroke-width="1.0204">Stale</tspan></text>
   <rect x="-160.66" y="12.629" width="24.581" height="12.29" fill="none" pointer-events="all" stroke-width="1.726"/>
   <text x="-159.74283" y="20.924988" fill="#ffffff" font-family="Helvetica" font-size="7.3742px" stroke-width="1.726"><tspan font-family="Exo" stroke-width="1.0204">GET</tspan></text>
   <g transform="matrix(.61452 0 0 .61452 -172.95 .33869)" pointer-events="all" stroke="#d45500" stroke-linecap="round" stroke-linejoin="round" stroke-miterlimit="10" stroke-width="1.9095">
    <path d="m70 100 10.52 5.98 7.19 12.25v22.37l-17.71-10.18z" fill="#fff"/>
    <path d="m80.69 106.27v7.88l7.02 4.02" fill="none"/>
   </g>
   <text x="-86.956619" y="51.993748" fill="#ffffff" font-family="Exo" font-size="6.795px" stroke-width="1.0204" text-align="center" text-anchor="middle" style="line-height:1.25" xml:space="preserve"><tspan x="-86.956619" y="51.993748" stroke-width="1.0204">CACHE</tspan></text>
   <path d="m-160.67 35.938v-8.4872c0-2.1069 1.5417-3.8032 3.4567-3.8032h66.835c1.915 0 3.4567 1.6962 3.4567 3.8032v8.4872" fill="none" marker-end="url(#marker110282882)" stop-color="#000000" stroke="#fff" stroke-width="1.0204"/>
   <path d="m-94.88 37.977h15.915c1.9754 0 3.5657 1.5903 3.5657 3.5656v15.914c0 1.9754-1.5903 3.5656-3.5657 3.5656h-15.915c-1.9754 0-3.5657-1.5903-3.5657-3.5656v-15.914c0-1.9754 1.5903-3.5656 3.5657-3.5656z" fill="#eee" fill-opacity=".33" stop-color="#000000" stroke="#fff" stroke-width="1.0204" style="-inkscape-stroke:none;font-variation-settings:normal"/>
   <path d="m-86.923 35.938v-8.4872c0-2.1069 1.5417-3.8032 3.4567-3.8032h49.94" fill="none" marker-end="url(#marker1102826195)" stop-color="#000000" stroke="#fff" stroke-width="1.0204"/>
   <path d="m-156.34 37.972c1.6162 0.58379 2.7899 1.438 3.7731 2.415-0.55921 0.3134-1.1614 0.63295-1.8558 0.90948-0.70054-1.6961-1.3151-2.5994-1.9173-3.3245zm2.4335 4.5413c0.84189-0.34413 1.6408-0.74356 2.372-1.2106 1.7206 1.9849 2.1139 3.3122 2.5625 4.5781-1.2167 0.84189-2.4888 1.5609-3.9083 2.0033-0.14748-1.6285-0.36871-3.3122-1.0262-5.3709zm1.0508 6.6429c1.6162-0.49161 2.9927-1.143 4.1296-1.948 0.35028 2.243 0.19665 3.5888-0.043 4.7748-1.8313 1.3888-3.2754 1.9849-4.6826 2.5257 0.19665-1.1369 0.37486-0.61452 0.59608-5.3524zm-1.014 6.9317c1.2966-0.40558 2.6178-0.85418 4.529-2.0894-1.6899 4.0681-4.6089 6.1636-7.1591 7.0608 0.92792-1.057 1.8436-2.3475 2.6301-4.9714zm-1.5179 0.39944c-1.2536 3.3553-3.0541 4.8854-4.6089 5.2418v-4.6089c1.6039-0.04916 3.1463-0.24581 4.6089-0.63295zm-4.6212-0.62681v-5.3647c1.5732 0.03687 3.6256-0.31955 5.8379-0.82345 6e-3 2.2799-0.3257 3.8837-0.68826 5.4262-2.0709 0.56536-3.6687 0.71284-5.1496 0.762zm0.0799-6.7105v-5.4508c1.6408-0.07989 3.2446-0.30726 4.7994-0.78044 0.52848 1.5793 0.82345 3.4351 1.0262 5.377-1.7882 0.52848-3.7547 0.78044-5.8256 0.85418zm-0.1352-11.94h0.51005c1.1614 0.38715 1.9726 1.3089 2.4458 1.9111 0.70669 0.90334 1.0938 1.7329 1.4626 2.5564-1.186 0.34413-2.5625 0.65139-4.4184 0.71898zm-1.2167 5.2541c-1.4687-0.0676-2.919-0.30726-4.3446-0.72513 0.47932-1.1799 1.0938-2.2737 1.9419-3.1893 0.5162-0.51619 1.0754-1.0017 1.8989-1.272h0.5039zm0.0615 6.6921c-2.2061-0.08603-4.1296-0.381-5.8318-0.85418 0.11676-1.5609 0.15978-3.048 1.0262-5.377 1.9173 0.60837 4.1357 0.78044 4.8117 0.76814zm-0.0615 1.2843 6e-3 5.377c-1.6899 0.04302-3.3798-0.25195-5.0698-0.68826-0.53463-1.9173-0.762-3.7424-0.75586-5.5122 1.9112 0.53463 3.853 0.78044 5.8195 0.82345zm0 6.7474v4.6027c-0.90334-0.19664-1.6592-0.70055-2.329-1.3765-1.0508-1.0938-1.7637-2.415-2.2921-3.7424 1.5363 0.3134 3.0726 0.54692 4.6212 0.51619zm-6.1083-0.98937c0.86647 2.6731 1.7882 3.81 2.71 4.8854-4.0374-1.5363-6.0038-4.3385-7.0977-6.729 1.438 0.74971 2.8698 1.5056 4.3876 1.8435zm-5.0513-3.8223c-0.40558-1.4687-0.51619-3.1525-0.17821-5.1681 1.1737 0.73127 2.4826 1.4195 4.2156 2.0033-6e-3 1.9787 0.18435 3.7916 0.58379 5.4323-1.272-0.35642-2.7285-0.98937-4.6212-2.2676zm0.20279-6.4831c0.53463-1.8005 1.4195-3.3 2.5748-4.5904 0.82959 0.56536 1.5854 0.86647 2.3597 1.2229-0.6391 1.7698-0.92177 3.7363-1.0201 5.377-1.2352-0.44245-2.4704-0.90948-3.9145-2.0095zm3.4597-5.5675c1.3151-1.1184 2.5933-1.8743 3.8469-2.3475-0.63909 0.76814-1.2905 1.7452-1.9849 3.2508-0.70055-0.30111-1.3335-0.60223-1.862-0.90334z" fill="#d45500" pointer-events="all" stroke-width="1.726"/>
   <path d="m-31.616 74.544h-51.85c-1.915 0-3.4567-1.6962-3.4567-3.8032v-7.8155" fill="none" marker-end="url(#marker1102826350)" stop-color="#000000" stroke="#fff" stroke-dasharray="2.04071992,2.04071992" stroke-width="1.0204"/>
   <path d="m109.72 23.648h73.799c1.915 0 3.4567 1.6962 3.4567 3.8032v8.6881" fill="none" marker-end="url(#marker1102829576)" stop-color="#000000" stroke="#fff" stroke-width="1.0204"/>
   <path d="m187.32 63.458v7.2827c0 2.107-1.5417 3.8032-3.4567 3.8032h-72.334" fill="none" marker-end="url(#marker1102824438)" stop-color="#000000" stroke="#fff" stroke-dasharray="2.04071992,2.04071992" stroke-width="1.0204"/>
   <g transform="translate(0 5.5306)">
    <path d="m247.66 63.044-29.786-12.966z" fill="none" marker-end="url(#marker11028244388659)" pointer-events="stroke" stop-color="#000000" stroke="#fff" stroke-dasharray="2.2958, 2.2958" stroke-miterlimit="10" stroke-width=".51018" style="font-variation-settings:normal"/>
    <rect x="251.06" y="10.785" width="12.8" height="15.363" fill="none" pointer-events="all" stroke-width="1.726"/>
    <path d="m251.06 24.379v-11.885c0.10447-0.87261 0.68826-1.5609 1.438-1.7084h8.7138l2.6486 3.0296v10.564c-0.0922 0.92178-0.71899 1.653-1.5179 1.7698h-9.8077c-0.78044-0.13519-1.3888-0.86032-1.4748-1.7698zm3.3553-2.5318h5.9424v-1.2905h-5.9424zm5.9424-2.4581v-1.2536h-5.9424v1.2536zm-5.9424-2.4212h5.9424v-1.2413h-5.9424zm6.2189-2.4089h2.1815l-2.1815-2.6055z" fill="#fff" pointer-events="all" stroke-width="1.726"/>
    <path d="m250.25 18.773-32.374 22.646z" fill="none" marker-end="url(#marker11028244388348)" pointer-events="stroke" stroke="#fff" stroke-dasharray="2.2958, 2.2958" stroke-miterlimit="10" stroke-width=".51018"/>
    <rect x="223.26" y="27.732" width="16.059" height="5.1267" rx="1.2052" ry="1.2052" fill="#fff" stop-color="#000000" style="-inkscape-stroke:none"/>
    <text x="231.0896" y="31.986282" fill="#000000" font-family="Helvetica" font-size="4.9161px" font-style="italic" stroke-width="1.726" text-anchor="middle"><tspan fill="#000000" font-family="Exo" font-style="italic" stroke-width="1.0204">mtime</tspan></text>
    <rect x="223.64" y="37.943" width="26.471" height="12.454" rx="1.3142" ry="1.3142" fill="#fff" stop-color="#000000" style="-inkscape-stroke:none"/>
    <text x="236.62024" y="42.43306" fill="#000000" font-family="Helvetica" font-size="4.9161px" font-style="italic" stroke-width="1.0204" text-anchor="middle"><tspan x="236.62024" y="42.43306" font-family="Exo" font-style="italic">last update</tspan><tspan x="236.62024" y="48.719109">timestamp</tspan></text>
    <g transform="translate(1.0611 .87737)">
     <rect x="216.86" y="52.549" width="27.587" height="5.6003" rx="1.2239" ry="1.2239" fill="#fff" stop-color="#000000" style="-inkscape-stroke:none"/>
     <text x="230.47508" y="57.181454" fill="#000000" font-family="Helvetica" font-size="4.9161px" font-style="italic" stroke-width="1.726" text-anchor="middle"><tspan fill="#000000" font-family="Exo" font-style="italic" stroke-width="1.0204">304 or 200</tspan></text>
    </g>
    <path d="m260.28 45.536c0.56536 0.4486 1.5793 0.83574 2.7162 1.0385 2.0033 0.35642 4.1418 0.35027 6.0591 0.03687 1.186-0.19664 2.2184-0.54692 2.9005-1.0693v3.3c-0.0922 0.91563-0.8972 1.395-1.7698 1.7206-1.9849 0.65753-5.3832 0.74356-7.7982 0.11061-1.0078-0.30111-2.0218-0.80502-2.1078-1.8313zm0-11.356c0-0.87261 1.8128-1.7821 5.7273-1.8866 3.8837 0 5.9485 1.0017 5.9485 1.8866 0 0.97708-2.5011 1.8743-5.5737 1.8743-3.1463 0.04302-6.1022-0.75586-6.1022-1.8743zm0 1.3212c0.56536 0.4486 1.5793 0.83574 2.7162 1.0385 2.0033 0.35642 4.1418 0.35028 6.0591 0.03687 1.186-0.19664 2.2184-0.55306 2.9005-1.0693v3.3c-0.0922 0.90948-0.8972 1.395-1.7698 1.7206-1.9849 0.65753-5.3832 0.74356-7.7982 0.10447-1.0078-0.29497-2.0218-0.80502-2.1078-1.8251zm0 4.996c0.56536 0.4486 1.5793 0.83574 2.7162 1.0385 2.0033 0.35642 4.1418 0.34413 6.0591 0.03072 1.186-0.1905 2.2184-0.54692 2.9005-1.0693v3.3061c-0.0922 0.91563-0.8972 1.395-1.7698 1.7145-1.9849 0.66368-5.3832 0.74971-7.7982 0.11061-1.0078-0.30111-2.0218-0.80502-2.1078-1.8313z" fill="#fff" pointer-events="all" stroke-width="1.726"/>
    <rect x="248.3" y="58.288" width="20.211" height="18.866" fill="none" pointer-events="all" stroke-width="1.726"/>
    <path d="m251.01 60.322c0.88491-0.78658 2.0218-1.4994 3.2692-1.8497-0.52234 0.49161-1.186 1.3028-1.776 2.6424-0.46704-0.18436-1.1-0.51619-1.4933-0.79273zm-2.2676 3.6625c0.39943-1.2167 0.97708-2.2061 1.7575-3.0726 0.58379 0.42402 1.2352 0.72513 1.7514 0.94021-0.41788 1.2598-0.58994 2.5134-0.66368 3.6134-0.8296-0.30111-1.8989-0.74356-2.8452-1.481zm-0.15363 4.2279c-0.22737-1.0447-0.28882-2.1692-0.0492-3.4106 0.90334 0.61452 1.9111 1.1061 3.0234 1.4503 0 1.3274 0.14134 2.5625 0.40558 3.6625-0.96479-0.30726-2.2737-0.90334-3.3798-1.7022zm3.6072 2.5994c0.58993 1.7944 1.3827 2.8698 2.0832 3.5027-3.048-0.92178-4.6457-3.1095-5.3586-4.9591 0.87876 0.54077 2.0402 1.0938 3.2754 1.4564zm4.0742 0.60837v3.1033c-0.60837-0.11676-1.1368-0.39329-1.7268-1.0078-0.6944-0.74356-1.1307-1.6039-1.4503-2.4765 0.96479 0.21508 1.991 0.35642 3.177 0.381zm0-0.762c-1.1737-0.02458-2.2737-0.16592-3.4597-0.46089-0.36257-1.2782-0.47318-2.5318-0.47933-3.6871 1.5056 0.37486 2.9866 0.52234 3.939 0.52848zm0-4.3815c-1.4564-0.03073-2.7653-0.23966-3.9145-0.55921 0.0307-0.91563 0.21508-2.4642 0.63296-3.6134 1.4257 0.43631 2.8206 0.54692 3.2815 0.53463zm0-4.4245c-0.91563-0.01844-2.0586-0.17821-3.0234-0.48547 0.3257-0.79273 0.88491-1.6776 1.4626-2.2368 0.47318-0.44245 0.98937-0.74356 1.5609-0.83574zm0.762-3.5642c0.78658 0.13519 1.4994 0.70055 1.948 1.2598 0.48547 0.58994 0.86032 1.2905 1.0754 1.8435-0.78043 0.23352-1.7575 0.45474-3.0234 0.48547zm0 7.9949v-3.6134c1.1246-0.03073 2.2553-0.22737 3.2754-0.54077 0.41172 1.1676 0.58993 2.5318 0.63909 3.5949-1.0693 0.30111-2.5257 0.53463-3.9145 0.55921zm0 4.3446v-3.6134c1.2413-0.01843 2.6301-0.17206 3.939-0.53463v0.25195l-0.30111 0.12905c-0.57765 0.27039-0.68826 0.89105-0.51005 1.3335l0.22737 0.52848-0.27653 0.27653-0.5715-0.24581c-0.42402-0.16592-1.0078 0-1.2598 0.51005l-0.42401 1.0078c-0.0369 0.09832-0.0738 0.19664-0.086 0.31955zm1.905 1.6592-0.58993 0.24581c-0.42402 0.20894-0.71284 0.71284-0.5162 1.3028l0.1352 0.32569c-0.28882 0.17821-0.61452 0.30726-0.93407 0.36256v-3.1033c0.30112-0.01844 0.65754-0.03687 0.97094-0.07374 0.12905 0.15977 0.2581 0.23966 0.38714 0.29497l0.54692 0.23966zm2.8206-6.01c1.2045-0.38714 2.2676-0.94021 3.0234-1.4748 0.11062 0.51619 0.14749 1.0815 0.15363 1.5424-0.48546-0.07989-0.94635 0.23352-1.0938 0.63295l-0.20279 0.52234h-0.43016l-0.20893-0.52234c-0.16592-0.40558-0.67597-0.76814-1.272-0.56536 0-0.04916 0-0.10447 0.0307-0.13519zm-0.71283-4.4245c0.79272-0.3134 1.3089-0.60837 1.7821-0.94021 1.0754 1.2352 1.4994 2.3536 1.7268 3.0787-0.5715 0.43631-1.4318 0.98323-2.8452 1.4748-0.0799-1.0508-0.21508-2.2368-0.66367-3.6134zm-2.0586-3.386c1.3765 0.41787 2.5994 1.2229 3.3061 1.8804-0.35642 0.2581-1.0508 0.60837-1.524 0.79273-0.45474-1.0754-0.96479-1.9296-1.7821-2.6731zm0.70669 12.966-1.0447-0.43016c-0.14748-0.08603-0.21508-0.20894-0.15363-0.381l0.39329-0.94636c0.0922-0.14134 0.20279-0.22737 0.381-0.15363l0.97094 0.49161c0.3134-0.36871 0.65139-0.73127 1.0262-1.0508l-0.42402-1.0447c-0.0307-0.1229-0.043-0.24581 0.1352-0.36256l0.97708-0.41173c0.18435-0.06145 0.28882 0.02458 0.35642 0.12905l0.43631 1.0693c0.4363-0.08603 0.87261-0.12905 1.3827 0.02458l0.44245-1.0815c0.0983-0.15363 0.21508-0.19664 0.36871-0.14134l0.97094 0.41173c0.15977 0.09832 0.1782 0.22122 0.13519 0.35027l-0.43631 1.0693c0.381 0.30726 0.73742 0.62681 1.014 0.99552l1.0508-0.42402c0.18435-0.05531 0.30111 0.01229 0.36871 0.15977l0.41172 0.97094c0.0184 0.14134-6e-3 0.26424-0.15363 0.33798l-1.057 0.43016c0.0492 0.41787 0.043 0.94021 0 1.4011l1.057 0.43016c0.14749 0.08603 0.20894 0.20279 0.16592 0.35642l-0.38714 0.90948c-0.0737 0.11676-0.17821 0.17821-0.33799 0.14134l-1.0692-0.43631c-0.28268 0.38714-0.6391 0.73128-1.0324 1.0262l0.42401 1.0508c0.0676 0.16592-0.0184 0.30726-0.11675 0.35642l-1.0324 0.43016c-0.14134 0.02458-0.26424 0.01844-0.3257-0.15977l-0.43016-1.0693c-0.39329 0.11061-0.8849 0.14134-1.3827 0.01229l-0.43016 1.057c-0.0676 0.11061-0.14748 0.20279-0.33798 0.15977l-1.0078-0.42402c-0.14134-0.09832-0.20279-0.22123-0.11676-0.39329l0.47932-0.9525c-0.42401-0.31955-0.77429-0.65753-1.0508-1.014l-1.0262 0.41787c-0.15978 0.05531-0.29497 0.01844-0.38715-0.12905l-0.41172-0.98323c-0.0369-0.12905-6e-3 -0.28268 0.14134-0.35642l1.0692-0.46089c-0.0492-0.46089-0.0492-0.92178-6e-3 -1.3827zm1.143 0.66982c0 1.6346 1.3458 2.6486 2.6609 2.6486 1.4257 0 2.6056-1.2106 2.6056-2.624 0-1.5117-1.272-2.6424-2.5994-2.6424-1.3028 0-2.667 0.97708-2.667 2.6178z" fill="#fff" pointer-events="all" stroke-width="1.726"/>
    <rect x="202.51" y="36.595" width="15.363" height="20.279" fill="none" pointer-events="all" stroke-width="1.726"/>
    <text x="210.19604" y="51.036289" fill="#ffffff" font-family="Helvetica" font-size="14.748px" font-weight="bold" opacity=".5" stroke-width="1.726" text-anchor="middle"><tspan fill="#ffffff" font-family="Exo" font-weight="bold" stroke-width="1.0204">?</tspan></text>
    <path d="m259.6 42.378-41.72 3.681z" fill="none" marker-end="url(#marker11028244383634)" pointer-events="stroke" stop-color="#000000" stroke="#fff" stroke-dasharray="2.2958, 2.2958" stroke-miterlimit="10" stroke-width=".51018" style="-inkscape-stroke:none;font-variation-settings:normal"/>
   </g>
  </g>
 </g>
</svg>
