<?xml version="1.0" encoding="UTF-8" standalone="no"?>
<!-- Created with Inkscape (http://www.inkscape.org/) -->

<svg
   width="91.541mm"
   height="58.735504mm"
   viewBox="0 0 91.541 58.735504"
   version="1.1"
   id="svg914"
   inkscape:version="1.1.2 (0a00cf5339, 2022-02-04)"
   sodipodi:docname="arabesque-intro.svg"
   xmlns:inkscape="http://www.inkscape.org/namespaces/inkscape"
   xmlns:sodipodi="http://sodipodi.sourceforge.net/DTD/sodipodi-0.dtd"
   xmlns="http://www.w3.org/2000/svg"
   xmlns:svg="http://www.w3.org/2000/svg">
  <sodipodi:namedview
     id="namedview916"
     pagecolor="#ffffff"
     bordercolor="#999999"
     borderopacity="1"
     inkscape:pageshadow="0"
     inkscape:pageopacity="0"
     inkscape:pagecheckerboard="0"
     inkscape:document-units="mm"
     showgrid="false"
     fit-margin-top="0"
     fit-margin-left="0"
     fit-margin-right="0"
     fit-margin-bottom="0"
     inkscape:zoom="0.56569164"
     inkscape:cx="361.50437"
     inkscape:cy="26.516213"
     inkscape:window-width="1920"
     inkscape:window-height="1143"
     inkscape:window-x="0"
     inkscape:window-y="0"
     inkscape:window-maximized="1"
     inkscape:current-layer="layer1" />
  <defs
     id="defs911" />
  <g
     inkscape:label="Calque 1"
     inkscape:groupmode="layer"
     id="layer1"
     transform="translate(26.59412,-141.8165)">
    <path
       id="path2432"
       style="fill:#cf5a17;fill-opacity:1;stroke-width:1"
       d="m 16.63276,199.62767 c -1.86961,-1.57317 -2.62566,-3.45924 -2.59839,-6.48201 0.0278,-3.08489 0.84612,-5.53768 2.91575,-8.73979 l 1.36409,-2.11052 -2.17893,-2.15957 c -1.19841,-1.18776 -2.37763,-2.15956 -2.62047,-2.15956 -0.24285,0 -1.34983,0.4584 -2.45996,1.01866 -2.46364,1.24338 -5.47804,2.1672 -6.93313,2.12479 -0.91343,-0.0266 -0.80701,-0.10597 0.68139,-0.50805 0.97014,-0.26208 3.1475,-1.15099 4.83858,-1.97537 2.27816,-1.11056 2.98287,-1.60951 2.72023,-1.92598 -0.19496,-0.23491 -1.58199,-1.233 -3.08228,-2.21797 l -2.72781,-1.79085 -2.28547,0.9386 c -5.02735,2.06464 -10.87909,0.64837 -10.10268,-2.44511 0.32829,-1.30801 1.81304,-2.1047 4.29349,-2.3038 1.95457,-0.1569 2.51084,-0.035 5.29342,1.16017 l 3.10934,1.33548 1.44103,-0.77252 c 0.79257,-0.42489 1.80687,-1.05291 2.25401,-1.39561 l 0.81297,-0.62309 -2.92964,-2.31181 C 6.827,165.01226 4.62385,163.3884 3.5424,162.67517 l -1.96625,-1.29679 -2.26708,0.58805 c -1.24689,0.32342 -3.5894,0.60512 -5.20559,0.626 -2.80319,0.0362 -2.97784,-0.008 -3.79236,-0.95185 -1.0403,-1.20596 -1.08562,-2.32455 -0.14277,-3.52319 1.692,-2.15104 4.72334,-1.99433 9.78713,0.50597 3.2328,1.59623 3.55088,1.60383 7.28309,0.17409 l 2.08269,-0.79784 -2.25908,-1.424 c -9.00393,-5.67562 -15.03057,-7.54582 -21.9904,-6.82412 -6.96401,0.72212 -10.4475,3.16556 -10.42343,7.31131 0.0226,3.89138 4.6702,8.40176 10.47096,10.16181 3.18615,0.96673 7.87977,0.59987 13.3338,-1.0422 0.38805,-0.11683 -0.28547,0.27999 -1.49672,0.88183 -2.89312,1.43752 -7.5072,2.25727 -10.05425,1.78627 -5.30973,-0.98188 -10.40633,-4.13904 -12.5396,-7.76781 -0.7968,-1.3554 -0.95666,-2.04425 -0.95666,-4.12252 0,-2.13334 0.14113,-2.70847 0.97316,-3.96574 1.21945,-1.84272 2.9248,-2.96614 6.0824,-4.00689 2.12053,-0.69892 3.19219,-0.81401 7.58472,-0.81453 4.69877,-7e-4 5.34508,0.0799 7.9375,0.98854 3.75718,1.31683 9.25385,4.03537 12.57533,6.21951 l 2.69754,1.77386 1.71218,-0.74857 c 0.94169,-0.41171 2.38852,-1.14047 3.21516,-1.61947 l 1.50299,-0.87092 -1.3266,-0.96484 c -0.72963,-0.53066 -1.93988,-1.6462 -2.68945,-2.47898 -1.29523,-1.43902 -1.35499,-1.60891 -1.20448,-3.42383 0.28511,-3.43809 2.4353,-5.23182 6.2715,-5.23182 3.89262,0 6.35,2.13386 6.35,5.51403 0,1.53172 -0.15279,1.86117 -1.49931,3.23292 -0.82461,0.84007 -1.94908,1.84272 -2.4988,2.22811 l -0.9995,0.70071 3.84796,1.78555 3.84796,1.78554 2.79599,-1.74081 c 9.18771,-5.72036 15.96383,-7.81155 22.72792,-7.01412 1.64924,0.19444 3.81633,0.60071 4.81575,0.90283 7.65218,2.31322 9.12753,9.4563 3.09238,14.97209 -5.84579,5.34272 -14.33269,6.4054 -20.90041,2.61702 -1.88456,-1.08705 -1.76846,-1.31322 0.30606,-0.59619 2.06663,0.71429 6.80012,1.54039 8.82983,1.541 5.30227,0.002 12.46875,-4.47809 13.85873,-8.66292 1.98363,-5.97216 -4.05941,-10.03842 -14.23567,-9.57895 -2.4226,0.10939 -4.55855,0.43599 -6.17361,0.944 -2.78954,0.87743 -9.25071,4.03853 -11.89652,5.82032 -2.05913,1.3867 -2.08143,1.3614 2.45979,2.78992 l 2.91049,0.91554 2.84523,-1.45413 c 2.249,-1.14942 3.3394,-1.48897 5.2034,-1.62037 2.16056,-0.15231 2.43946,-0.0905 3.3283,0.73746 1.28788,1.19968 1.33331,3.07574 0.10423,4.30481 -0.77427,0.77428 -1.16299,0.86591 -3.67313,0.86591 -1.54397,0 -4.0515,-0.23809 -5.57229,-0.5291 -1.52078,-0.29101 -2.87049,-0.52913 -2.99936,-0.52917 -0.4101,-1e-4 -8.40875,6.04437 -8.40875,6.35439 0,0.35692 3.97726,2.81777 4.55412,2.81777 0.22269,0 1.37573,-0.49008 2.56232,-1.08906 3.49829,-1.76594 7.48,-1.74204 9.41048,0.0565 0.60152,0.56041 0.7715,1.05853 0.69039,2.0232 -0.27931,3.32217 -6.76595,4.21083 -11.77342,1.61292 -0.97001,-0.50324 -1.08362,-0.46069 -3.92696,1.47071 -1.61042,1.09391 -2.92804,2.05148 -2.92804,2.12792 0,0.28487 5.18547,2.75547 7.05555,3.36158 1.06715,0.34588 1.59981,0.63741 1.18369,0.64784 -1.07147,0.0269 -5.28656,-1.31725 -7.25738,-2.31425 -0.91518,-0.46297 -1.76236,-0.84177 -1.88262,-0.84177 -0.31843,0 -4.74369,4.29735 -4.74369,4.60658 0,0.14377 0.54338,1.06886 1.20751,2.05576 2.84177,4.22285 3.66619,9.44605 2.02275,12.81533 -1.47139,3.01652 -4.56158,4.01222 -6.74644,2.17378 z m 4.32333,-1.17199 c 2.97434,-2.61151 2.58371,-8.45123 -0.90915,-13.59143 l -0.87467,-1.2872 -1.2859,2.05028 c -1.39961,2.23156 -2.67747,5.88389 -2.67435,7.64369 0.004,1.90392 0.68506,3.68531 1.90541,4.97926 1.43109,1.5174 2.29191,1.56346 3.83866,0.2054 z m 2.09953,-21.56484 c -0.14347,-0.12718 -1.11736,-0.79837 -2.16422,-1.49152 l -1.90337,-1.26029 -2.06538,1.40257 c -1.13595,0.77142 -2.06538,1.48138 -2.06538,1.57769 0,0.0963 0.91282,1.09089 2.02848,2.21015 l 2.02847,2.03504 2.20112,-2.1212 c 1.21062,-1.16667 2.08374,-2.22527 1.94028,-2.35244 z m -8.45064,-1.08507 c 0.41781,-0.2236 1.35049,-0.83455 2.07261,-1.35765 l 1.31296,-0.9511 -2.81837,-2.14528 -2.81836,-2.14528 -2.30806,1.47145 c -1.93359,1.23272 -2.21291,1.52918 -1.72159,1.82724 0.32256,0.19569 1.64229,1.10985 2.93273,2.03148 1.29044,0.92164 2.40075,1.6757 2.46734,1.6757 0.0666,0 0.46293,-0.18295 0.88074,-0.40656 z m 12.40241,-1.57527 c 1.46661,-1.09 2.66655,-2.02394 2.66655,-2.07543 0,-0.12962 -4.2422,-2.64552 -4.46076,-2.64552 -0.0973,0 -1.26886,0.85444 -2.60354,1.89875 l -2.42668,1.89875 2.01146,1.43875 c 1.10631,0.79132 2.04183,1.445 2.07894,1.45264 0.0371,0.008 1.26743,-0.87793 2.73403,-1.96794 z M 3.7184,172.81535 c 1.58107,-0.53872 1.67085,-0.62777 1.07337,-1.06466 -0.35861,-0.26222 -1.53463,-0.80991 -2.61339,-1.21708 -3.01156,-1.1367 -7.07666,-0.48513 -7.07666,1.13427 0,1.91806 4.56932,2.52655 8.61668,1.14747 z m 38.38507,-0.17485 c 1.59812,-0.85529 -0.20384,-2.41109 -2.8031,-2.42019 -1.60321,-0.006 -5.3931,1.24808 -5.3931,1.78403 0,0.18009 0.11907,0.33444 0.26459,0.343 0.14552,0.009 1.05833,0.24364 2.02847,0.5224 1.83387,0.52694 4.69804,0.41571 5.90314,-0.22924 z m -19.21999,-2.71343 1.49982,-1.20891 -2.55815,-1.76431 c -1.40698,-0.97037 -2.74113,-1.83524 -2.96477,-1.92192 -0.42933,-0.16642 -4.46425,2.63979 -4.66282,3.2429 -0.0639,0.19403 1.05061,1.24619 2.47664,2.33813 l 2.5928,1.98536 1.05833,-0.73116 c 0.58208,-0.40214 1.73325,-1.27518 2.55815,-1.94009 z m -5.20576,-5.77335 c 0.002,-0.22733 -4.6923,-3.67685 -6.79015,-4.98996 -0.93823,-0.58727 -1.06518,-0.57471 -3.75164,0.37106 -1.5293,0.5384 -2.80355,1.10416 -2.83166,1.25725 -0.0281,0.1531 1.89824,1.75583 4.2808,3.56162 l 4.33193,3.28326 2.37947,-1.62134 c 1.30871,-0.89174 2.38027,-1.72959 2.38125,-1.86189 z m 11.18076,1.19659 c 1.51565,-1.12341 3.34997,-2.4331 4.07625,-2.91041 0.72627,-0.47732 1.31717,-0.94722 1.3131,-1.04424 -0.004,-0.097 -1.65002,-0.71854 -3.65765,-1.38117 l -3.65025,-1.20478 -3.21324,2.26312 c -1.76729,1.24471 -3.21281,2.34249 -3.21228,2.4395 10e-4,0.22437 5.01984,3.85901 5.34546,3.87135 0.13358,0.005 1.48295,-0.90995 2.99861,-2.03337 z m -6.03503,-4.70134 c 1.63347,-1.18679 2.96994,-2.22745 2.96994,-2.31257 0,-0.0851 -0.91282,-0.57159 -2.02848,-1.08103 -1.11566,-0.50944 -2.75141,-1.35132 -3.63502,-1.87084 l -1.60654,-0.94457 -3.23222,1.62577 -3.23222,1.62577 3.60405,2.54635 c 1.98222,1.4005 3.736,2.55143 3.89729,2.55764 0.16129,0.006 1.62973,-0.95973 3.2632,-2.14652 z m -24.87927,0.69499 c 1.34706,-0.22246 2.44921,-0.50589 2.44921,-0.62984 0,-0.48376 -4.78062,-2.54959 -6.31496,-2.72886 -1.31667,-0.15383 -1.80543,-0.0449 -2.59268,0.57769 -1.15253,0.9115 -1.21814,1.52639 -0.26459,2.47994 0.8323,0.8323 2.9359,0.9265 6.72302,0.30107 z m 48.24326,0.0222 c 1.25077,-0.43602 1.69282,-1.37971 1.13475,-2.42247 -0.79106,-1.47811 -3.8484,-1.41451 -7.3406,0.1527 -1.19886,0.53801 -2.103,1.10236 -2.00921,1.25412 0.1455,0.23543 2.3226,0.67572 5.81267,1.17553 0.48507,0.0695 0.97732,0.14792 1.09389,0.17434 0.11656,0.0264 0.70539,-0.12398 1.3085,-0.33422 z m -24.3628,-10.40723 c 2.00405,-1.78774 2.20486,-2.09443 2.20486,-3.36733 0,-0.77025 -0.23114,-1.84741 -0.51363,-2.39369 -1.531,-2.96062 -7.96939,-2.82406 -9.23116,0.19579 -1.0008,2.39525 -0.41638,3.63257 2.83229,5.99646 1.16313,0.84634 2.20208,1.53809 2.30877,1.53722 0.10671,-7e-4 1.18619,-0.88668 2.39887,-1.96845 z" />
  </g>
</svg>
