<?xml version="1.0" encoding="UTF-8" standalone="no"?>
<!-- Created with Inkscape (http://www.inkscape.org/) -->

<svg
   width="89.794083mm"
   height="46.077629mm"
   viewBox="0 0 89.794083 46.077629"
   version="1.1"
   id="svg5327"
   inkscape:version="1.1.2 (0a00cf5339, 2022-02-04)"
   sodipodi:docname="arabesque-cover.svg"
   xmlns:inkscape="http://www.inkscape.org/namespaces/inkscape"
   xmlns:sodipodi="http://sodipodi.sourceforge.net/DTD/sodipodi-0.dtd"
   xmlns="http://www.w3.org/2000/svg"
   xmlns:svg="http://www.w3.org/2000/svg">
  <sodipodi:namedview
     id="namedview5329"
     pagecolor="#ffffff"
     bordercolor="#999999"
     borderopacity="1"
     inkscape:pageshadow="0"
     inkscape:pageopacity="0"
     inkscape:pagecheckerboard="0"
     inkscape:document-units="mm"
     showgrid="false"
     fit-margin-top="0"
     fit-margin-left="0"
     fit-margin-right="0"
     fit-margin-bottom="0"
     inkscape:zoom="0.56569164"
     inkscape:cx="-13.258107"
     inkscape:cy="-129.04557"
     inkscape:window-width="1920"
     inkscape:window-height="1143"
     inkscape:window-x="0"
     inkscape:window-y="0"
     inkscape:window-maximized="1"
     inkscape:current-layer="layer1" />
  <defs
     id="defs5324" />
  <g
     inkscape:label="Calque 1"
     inkscape:groupmode="layer"
     id="layer1"
     transform="translate(-72.499809,-182.75648)">
    <path
       id="path2628"
       style="fill:#cf5a17;fill-opacity:1;stroke-width:1"
       d="m 111.4939,228.33856 c -0.79038,-0.40751 -1.52037,-1.20307 -2.02847,-2.21066 -1.54065,-3.0552 -0.84967,-5.19078 2.85901,-8.83618 l 2.29829,-2.25907 -0.59428,-1.01261 c -1.05926,-1.80493 -1.25847,-1.82169 -3.83792,-0.32279 -6.6898,3.88741 -10.312419,5.15688 -14.748019,5.16813 -2.8354,0.007 -3.42026,-0.10931 -5.46805,-1.08932 -1.26118,-0.60356 -2.96613,-1.79651 -3.78878,-2.65101 l -1.49573,-1.55362 -2.73761,0.24919 c -1.50568,0.13705 -4.56323,0.23187 -6.79455,0.2107 -2.23132,-0.0212 -3.2632,-0.0864 -2.29306,-0.14492 2.68068,-0.16176 9.39809,-0.83198 10.512,-1.04883 0.69662,-0.13561 0.88769,-0.31254 0.64945,-0.60138 -0.18565,-0.22508 -0.68384,-1.439 -1.10707,-2.69759 -3.07596,-9.14715 2.83259,-17.96133 12.10447,-18.05707 2.07108,-0.0214 2.75378,0.1485 4.93889,1.22897 1.394579,0.68958 4.081479,2.53445 5.970889,4.09971 1.88941,1.56525 3.53994,2.84591 3.66784,2.84591 0.12789,0 0.92941,-0.57103 1.78114,-1.26896 l 1.5486,-1.26896 -0.74386,-1.11229 c -1.913,-2.8605 -2.94059,-5.61362 -2.91981,-7.82274 0.0383,-4.07515 1.85632,-5.79269 5.67576,-5.36219 1.25272,0.1412 1.87243,0.4417 2.60753,1.26442 2.6416,2.95647 1.90066,7.95965 -1.79471,12.11872 -1.58747,1.78667 -1.59469,2.2111 -0.0613,3.59882 0.40603,0.36745 0.73349,0.84192 0.7277,1.05439 -0.006,0.21246 -0.6011,-0.28441 -1.32291,-1.10415 l -1.31239,-1.49045 -1.5875,1.3837 -1.5875,1.3837 1.12049,1.13226 1.1205,1.13227 4.70034,-2.66171 c 6.59262,-3.73327 8.50154,-4.64486 12.03061,-5.74517 5.45321,-1.70023 10.32781,-0.92498 13.44456,2.13817 1.60236,1.57482 3.06245,4.55061 3.30988,6.74585 0.0958,0.84973 0.31403,1.63141 0.48499,1.73707 0.17096,0.10566 1.44891,0.50749 2.83989,0.89295 3.30535,0.91596 7.08601,2.68089 10.15848,4.74229 1.35971,0.91227 2.4722,1.72013 2.4722,1.79525 0,0.0751 -0.83344,-0.35506 -1.85208,-0.95595 -3.94273,-2.32581 -9.68477,-4.48478 -12.37342,-4.65233 l -1.44792,-0.0902 -0.24613,1.66307 c -0.2976,2.01091 -1.46879,4.44361 -3.00123,6.23392 -1.25923,1.47112 -4.57768,3.36597 -6.47922,3.69967 -3.08388,0.54118 -8.3415,-1.39463 -12.48167,-4.59562 -2.37459,-1.83593 -2.27086,-1.84669 -6.10082,0.63283 l -2.17832,1.41025 1.27225,2.50429 c 2.0915,4.11694 1.85729,7.34113 -0.66767,9.19099 -1.33462,0.97779 -3.72542,1.14115 -5.24377,0.35831 z m 4.46014,-1.03695 c 1.64827,-0.78216 2.35839,-2.25636 2.17152,-4.50805 -0.17873,-2.15366 -1.78402,-5.85133 -2.54026,-5.85133 -0.72811,0 -4.26848,3.67971 -4.97708,5.17297 -0.67085,1.41372 -0.46669,2.82474 0.60602,4.18847 1.26437,1.60739 2.78208,1.92693 4.7398,0.99794 z m 23.32347,-10.0194 c 3.60235,-1.80012 6.42483,-5.78049 6.43239,-9.07123 l 0.003,-1.4993 h -2.20547 -2.20547 l -0.80001,1.4993 c -1.50563,2.82169 -4.97086,4.22885 -8.48917,3.44725 -1.09917,-0.24418 -2.55412,-0.72547 -3.23322,-1.06954 -1.22957,-0.62298 -1.24429,-0.62103 -3.52778,0.46726 -1.26118,0.60107 -2.36084,1.14114 -2.44369,1.20015 -0.4998,0.35604 5.97878,4.40347 8.43865,5.27196 3.23714,1.14292 5.38258,1.07724 8.03032,-0.24585 z m -40.198849,-0.0328 c 2.661829,-0.6405 6.947869,-2.79062 12.142839,-6.09152 2.66357,-1.69245 4.94399,-3.2408 5.06758,-3.44077 0.12359,-0.19998 -0.36596,-0.9685 -1.0879,-1.70783 l -1.31261,-1.34423 -2.41943,1.11149 c -1.39808,0.64228 -2.35789,1.29007 -2.27364,1.5345 0.0836,0.24251 -0.0617,0.34337 -0.34056,0.23638 -0.26749,-0.10265 -2.36285,0.52528 -4.65634,1.3954 -4.290039,1.62759 -11.017259,3.41364 -15.577589,4.1358 l -2.58817,0.40985 1.00067,1.06562 c 0.55037,0.58609 1.95317,1.5218 3.11733,2.07937 1.73455,0.83073 2.58205,1.01379 4.69448,1.01402 1.4178,1.5e-4 3.3228,-0.17898 4.23334,-0.39808 z m 10.977429,-8.3329 -0.85524,-0.97014 0.97013,0.85524 c 0.53358,0.47039 0.97014,0.90695 0.97014,0.97014 0,0.27668 -0.28568,0.0515 -1.08503,-0.85524 z m 10.20243,1.78602 c -0.22642,-0.27282 -0.85541,-0.812 -1.39774,-1.19818 l -0.98607,-0.70214 -2.46975,1.64227 -2.46974,1.64227 1.10393,1.31491 1.10394,1.31491 2.76355,-1.759 c 2.25548,-1.43561 2.68787,-1.8502 2.35188,-2.25504 z m -30.192129,0.92821 c 6.7743,-1.50754 16.955239,-4.98297 16.953369,-5.7873 -3.5e-4,-0.18648 -0.41399,-0.64756 -0.91903,-1.02462 -0.91698,-0.68462 -0.92122,-0.68428 -3.05665,0.24183 -6.038929,2.61901 -10.484429,2.62931 -12.893499,0.0299 -1.75349,-1.89205 -0.76895,-5.6335 1.76055,-6.69039 1.69858,-0.70971 4.30872,-0.61993 6.14062,0.21122 1.54066,0.69902 6.033819,3.73872 6.033819,4.08199 0,0.22101 -0.43927,-0.0418 -2.46945,-1.47743 -2.876239,-2.03393 -4.623439,-2.75516 -6.709099,-2.76945 -1.46808,-0.01 -2.22066,0.1818 -3.06141,0.78047 -1.45634,1.037 -2.10127,2.90247 -1.50289,4.34709 1.34061,3.23653 7.13123,2.84276 14.448399,-0.98252 4.70222,-2.45823 4.59407,-2.30997 2.8374,-3.88997 -2.93767,-2.64223 -6.92939,-5.41623 -8.834619,-6.13953 -1.51411,-0.57482 -2.4869,-0.70283 -4.42902,-0.58283 -4.67254,0.28871 -8.43874,2.87236 -10.44895,7.16809 -0.89871,1.92049 -1.04973,2.65695 -1.03414,5.04295 0.0175,2.68362 0.56384,5.03169 1.67414,7.19573 0.60967,1.18827 1.1608,1.21275 5.51046,0.24479 z m 33.237749,-1.64119 c 1.07145,-0.52549 1.944,-1.04143 1.939,-1.14653 -0.005,-0.1051 -0.78681,-0.71851 -1.73735,-1.36314 -1.71016,-1.15978 -1.7387,-1.16555 -2.72494,-0.55122 -2.33407,1.45389 -2.37025,1.54641 -1.11249,2.84409 0.62489,0.64473 1.26026,1.17223 1.41193,1.17223 0.15167,0 1.1524,-0.42994 2.22385,-0.95543 z m 12.73207,0.48762 c 1.89771,-0.72596 4.15672,-3.05352 3.55123,-3.65901 -0.26899,-0.269 -5.22735,0.84601 -8.51347,1.91447 l -2.82133,0.91733 1.76299,0.62017 c 2.03863,0.71713 4.4687,0.8007 6.02058,0.20704 z m -5.90203,-3.23232 c 2.00597,-0.67517 4.98254,-1.42065 6.61459,-1.65662 1.63204,-0.23597 2.96735,-0.53458 2.96735,-0.66357 0,-0.5986 -1.64665,-2.22799 -2.69373,-2.66548 -2.71435,-1.13413 -6.67151,-0.40973 -11.78265,2.15694 -3.04016,1.52668 -3.04466,1.53793 -1.14198,2.85505 0.926,0.64102 1.84239,1.17354 2.03642,1.18338 0.19403,0.01 1.99403,-0.53453 4,-1.2097 z m -10.58257,-1.54916 0.77916,-0.58772 -1.35702,-1.3251 -1.35702,-1.32509 -1.6503,0.92237 c -0.90767,0.50731 -1.65031,1.02297 -1.65031,1.14593 0,0.12295 0.59532,0.80887 1.32292,1.52427 1.43769,1.41357 1.58623,1.4001 3.91257,-0.35466 z m -9.28982,-1.18101 2.30903,-1.13863 -1.14728,-1.09191 -1.14728,-1.09191 -2.12521,1.23998 c -1.16886,0.68199 -2.19197,1.28949 -2.27359,1.34999 -0.20541,0.15229 1.43954,1.87112 1.7907,1.87112 0.15653,0 1.32367,-0.51239 2.59363,-1.13864 z m 34.71869,-2.59342 c -0.9797,-2.66422 -3.78633,-5.54529 -6.02828,-6.18816 -2.2493,-0.64498 -5.54977,-0.49605 -8.47512,0.38242 -2.21764,0.66596 -8.96433,3.94367 -11.50615,5.58998 l -0.81325,0.52674 1.29478,1.32597 1.29478,1.32598 3.57541,-1.89217 c 3.54599,-1.8766 6.99823,-2.9679 9.42042,-2.97793 3.29759,-0.0136 6.82258,2.07062 7.2732,4.30054 0.1814,0.89768 0.32138,0.96054 2.35677,1.05833 1.96197,0.0943 2.17379,0.0355 2.26973,-0.62948 0.0582,-0.40339 -0.23984,-1.67339 -0.66229,-2.82222 z m -28.03574,-9.64021 c 1.40872,-2.72417 1.26181,-6.29375 -0.32021,-7.77998 -1.09823,-1.03174 -3.29127,-1.31233 -4.67287,-0.59788 -3.01051,1.5568 -2.85757,6.37798 0.36277,11.43535 l 0.95722,1.50327 1.57346,-1.77163 c 0.86541,-0.97439 1.81024,-2.2295 2.09963,-2.78913 z" />
  </g>
</svg>
