<?xml version="1.0" encoding="UTF-8" standalone="no"?>
<!-- Created with Inkscape (http://www.inkscape.org/) -->

<svg
   viewBox="0 0 100 100"
   version="1.1"
   id="svg5462"
   xmlns="http://www.w3.org/2000/svg"
   xmlns:svg="http://www.w3.org/2000/svg">
  <defs
     id="defs5459" />
  <g
     id="layer1"
     transform="translate(-47.102339,-155.78287)">
    <path
       id="rect9089"
       style="fill:none;stroke:#cf5a17;stroke-width:3.8397;stroke-opacity:1;stop-color:#000000"
       d="m 65.209251,205.78273 31.886797,-31.88663 31.886742,31.88663 -31.886779,31.88685 z m 58.721159,-8.80192 c 4.87642,-4.8768 12.72817,-4.8768 17.60439,-3.8e-4 4.87641,4.87643 4.87647,12.7282 5e-5,17.60481 -4.87636,4.87601 -12.72808,4.87601 -17.60449,0 L 88.294036,178.94876 c -4.876399,-4.87642 -4.87638,-12.72816 -1.14e-4,-17.60458 4.876437,-4.87642 12.728188,-4.87642 17.604608,0 4.87629,4.87642 4.87627,12.72816 -1.5e-4,17.60458 l -35.636548,35.63667 c -4.876418,4.87601 -12.728,4.87582 -17.604342,0 -4.876422,-4.8768 -4.876516,-12.7282 -9.5e-5,-17.60462 4.876437,-4.87642 12.727982,-4.87623 17.604418,1.9e-4 l 35.636397,35.63629 c 4.87642,4.87643 4.8764,12.72798 1.5e-4,17.6044 -4.87646,4.87623 -12.72819,4.87623 -17.604608,0 -4.876308,-4.87642 -4.876289,-12.72797 1.33e-4,-17.6044 z" />
  </g>
</svg>
