<?xml version="1.0" encoding="UTF-8" standalone="no"?>
<!-- Created with Inkscape (http://www.inkscape.org/) -->

<svg
   width="80.069481mm"
   height="31.388094mm"
   viewBox="0 0 80.069481 31.388094"
   version="1.1"
   id="svg1041"
   inkscape:version="1.1.2 (0a00cf5339, 2022-02-04)"
   sodipodi:docname="arabesque-right.svg"
   xmlns:inkscape="http://www.inkscape.org/namespaces/inkscape"
   xmlns:sodipodi="http://sodipodi.sourceforge.net/DTD/sodipodi-0.dtd"
   xmlns="http://www.w3.org/2000/svg"
   xmlns:svg="http://www.w3.org/2000/svg">
  <sodipodi:namedview
     id="namedview1043"
     pagecolor="#ffffff"
     bordercolor="#999999"
     borderopacity="1"
     inkscape:pageshadow="0"
     inkscape:pageopacity="0"
     inkscape:pagecheckerboard="0"
     inkscape:document-units="mm"
     showgrid="false"
     fit-margin-top="0"
     fit-margin-left="0"
     fit-margin-right="0"
     fit-margin-bottom="0"
     inkscape:zoom="0.56569164"
     inkscape:cx="22.096844"
     inkscape:cy="176.77475"
     inkscape:window-width="1920"
     inkscape:window-height="1143"
     inkscape:window-x="0"
     inkscape:window-y="0"
     inkscape:window-maximized="1"
     inkscape:current-layer="layer1" />
  <defs
     id="defs1038" />
  <g
     inkscape:label="Calque 1"
     inkscape:groupmode="layer"
     id="layer1"
     transform="translate(-138.16526,-102.17052)">
    <path
       id="path2658"
       style="fill:#cf5a17;fill-opacity:1;stroke-width:1"
       d="m 208.93301,133.09586 c 2.86013,-0.62217 4.80656,-1.65633 6.72138,-3.57115 1.99581,-1.99581 2.58998,-3.42609 2.58024,-6.21119 -0.009,-2.61584 -0.76589,-4.50717 -2.62812,-6.56843 -1.28189,-1.41889 -4.46934,-3.73688 -5.7148,-4.15592 -0.35484,-0.11938 0.39352,0.49709 1.66304,1.36995 4.13295,2.84161 6.08816,5.83633 6.05723,9.27761 -0.0443,4.93493 -4.5911,8.52214 -11.26714,8.88932 -5.31702,0.29244 -9.91552,-0.99697 -15.79552,-4.42902 -2.99923,-1.7506 -15.34823,-10.82389 -15.34234,-11.27261 0.004,-0.14629 0.73017,-0.7684 1.61833,-1.38247 l 1.61483,-1.11649 1.68728,0.84748 c 4.05766,2.03804 7.90209,2.31711 11.29095,0.81962 4.07778,-1.80191 4.48924,-4.37791 0.95553,-5.98232 -2.79238,-1.26784 -7.9189,-0.54566 -12.70627,1.78995 l -2.08658,1.01798 -2.10017,-1.42621 c -2.32449,-1.57852 -6.14328,-4.7417 -9.05401,-7.49959 -1.04362,-0.9888 -1.758,-1.54528 -1.5875,-1.23662 0.43864,0.79421 6.83899,6.73646 9.55333,8.86959 l 2.27589,1.78854 -0.99714,0.80686 c -2.09561,1.69572 -2.37212,1.73564 -4.04905,0.58455 -2.41518,-1.65782 -6.90562,-3.79624 -10.17725,-4.84658 -3.97958,-1.27763 -10.00111,-1.60975 -13.40555,-0.73938 -5.98555,1.53024 -9.88367,6.2755 -9.87432,12.02024 0.01,5.86825 5.01639,9.69007 12.71062,9.70218 6.46811,0.0102 12.07332,-2.79304 19.26004,-9.63213 l 3.21349,-3.05806 1.26023,0.85521 c 0.6931,0.47036 3.29308,2.34336 5.77771,4.16222 8.52696,6.24211 13.83736,9.0534 19.18616,10.15703 3.82211,0.78862 6.30759,0.83373 9.35948,0.16984 z m -60.36425,-4.7641 c -3.16688,-0.51797 -6.14775,-2.12004 -7.32013,-3.9342 -2.58957,-4.00711 0.0619,-10.76809 5.09481,-12.99101 3.39559,-1.49976 9.77936,-1.48119 14.92532,0.0434 3.4997,1.03687 10.40437,4.55471 10.40631,5.30188 0,0.3739 -5.33805,5.12749 -8.0525,7.16955 -2.71935,2.04574 -6.79919,3.89201 -9.64713,4.36567 -2.60918,0.43395 -3.00662,0.43724 -5.40668,0.0447 z m 33.5201,-13.79808 c -2.8728,-1.0899 -2.89498,-1.16848 -0.61819,-2.19024 4.5667,-2.04941 9.12639,-2.51195 11.22264,-1.13843 1.15267,0.75526 1.07548,1.39893 -0.29191,2.43411 -2.65295,2.00842 -6.49757,2.34192 -10.31254,0.89456 z" />
  </g>
</svg>
