<?xml version="1.0" encoding="UTF-8" standalone="no"?>
<!-- Created with Inkscape (http://www.inkscape.org/) -->

<svg
   width="88.343666mm"
   height="29.045916mm"
   viewBox="0 0 88.343666 29.045916"
   version="1.1"
   id="svg4857"
   inkscape:version="1.1.2 (0a00cf5339, 2022-02-04)"
   sodipodi:docname="arabesque.svg"
   xmlns:inkscape="http://www.inkscape.org/namespaces/inkscape"
   xmlns:sodipodi="http://sodipodi.sourceforge.net/DTD/sodipodi-0.dtd"
   xmlns="http://www.w3.org/2000/svg"
   xmlns:svg="http://www.w3.org/2000/svg">
  <sodipodi:namedview
     id="namedview4859"
     pagecolor="#ffffff"
     bordercolor="#999999"
     borderopacity="1"
     inkscape:pageshadow="0"
     inkscape:pageopacity="0"
     inkscape:pagecheckerboard="0"
     inkscape:document-units="mm"
     showgrid="false"
     fit-margin-top="0"
     fit-margin-left="0"
     fit-margin-right="0"
     fit-margin-bottom="0"
     inkscape:zoom="0.56569164"
     inkscape:cx="186.49736"
     inkscape:cy="134.34881"
     inkscape:window-width="1920"
     inkscape:window-height="1143"
     inkscape:window-x="0"
     inkscape:window-y="0"
     inkscape:window-maximized="1"
     inkscape:current-layer="layer1" />
  <defs
     id="defs4854" />
  <g
     inkscape:label="Calque 1"
     inkscape:groupmode="layer"
     id="layer1"
     transform="translate(-19.437619,-113.16366)">
    <path
       id="path2146"
       style="fill:#cf5a17;fill-opacity:1;stroke-width:1"
       d="m 91.380544,113.49027 c 2.73921,0.71003 4.44714,1.65625 6.17741,3.42244 1.18358,1.20815 2.04227,1.73686 3.351386,2.0635 4.6383,1.15729 6.87986,3.92045 6.87192,8.47097 -0.006,3.43662 -2.30817,6.93554 -6.01404,9.14029 -3.010956,1.7913 -8.626776,2.33726 -13.00998,1.26482 -4.04322,-0.9893 -11.22556,-4.92697 -17.49418,-9.59111 l -1.06748,-0.79425 -3.16586,1.3728 c -1.74122,0.75505 -4.2771,1.81035 -5.63529,2.34509 -1.3582,0.53478 -2.58367,1.0746 -2.72327,1.19962 -0.1396,0.12503 1.49687,1.39972 3.6366,2.83267 8.55254,5.72749 14.16779,7.45596 17.91938,5.51596 0.5529,-0.28592 1.75651,-1.09329 2.67469,-1.79416 1.80721,-1.37946 2.65787,-1.39015 2.65787,-0.0335 0,2.09218 -3.87529,3.65189 -8.04273,3.23702 -4.9177,-0.48959 -8.82351,-2.16814 -15.63484,-6.71908 l -4.00792,-2.6779 -4.41351,1.66275 c -9.86355,3.71598 -13.78857,4.58011 -19.23016,4.23361 -5.98679,-0.38117 -9.93024,-1.6263 -12.49809,-3.9462 -2.49371,-2.25291 -3.00806,-5.97458 -1.28218,-9.27753 1.2145,-2.32424 4.42114,-4.18976 7.80155,-4.53866 1.83049,-0.18891 1.93484,-0.25661 2.63996,-1.71323 0.98766,-2.04022 2.98685,-3.77328 5.49746,-4.76564 1.76904,-0.69924 2.72418,-0.82243 6.48435,-0.83637 3.74134,-0.0138 4.78402,0.11067 6.87917,0.82148 3.0053,1.01964 6.98056,3.03689 10.04194,5.09581 l 2.28082,1.53398 3.7164,-1.74198 c 5.33503,-2.50063 9.69272,-4.19449 13.94695,-5.42128 2.48896,-0.71776 9.43603,-0.93384 11.641674,-0.36209 z m -8.995844,1.35989 c -2.92842,0.55252 -8.91826,2.78331 -13.98853,5.20978 l -4.5323,2.16899 0.88195,0.67796 c 0.48507,0.37285 1.71465,1.25632 2.73241,1.96318 l 1.85047,1.28524 5.55786,-2.30756 c 3.05683,-1.26919 7.54224,-2.97981 9.96759,-3.80139 3.94852,-1.33756 4.84571,-1.51109 8.578404,-1.65915 l 4.16868,-0.16535 -0.94696,-0.98841 c -2.53126,-2.64206 -8.030194,-3.56048 -14.269574,-2.38329 z m -45.15555,0.11624 c -2.11385,0.85273 -3.988,2.20507 -4.89951,3.53532 -1.25364,1.82958 -1.0369,2.16479 1.58108,2.44514 3.74289,0.40083 7.08181,1.47098 11.69917,3.74971 5.06136,2.49784 4.15565,2.58096 11.30786,-1.03791 l 4.69554,-2.37585 -2.64212,-1.67372 c -3.21266,-2.03517 -7.83123,-4.22896 -10.45313,-4.96517 -2.66501,-0.74835 -9.08939,-0.56483 -11.28889,0.32248 z m 48.80756,6.28505 c -3.51551,1.16607 -13.56046,5.11298 -14.85183,5.83568 -0.36086,0.20193 0.7033,1.09383 3.7733,3.16237 7.5081,5.05894 12.25199,7.0551 17.501734,7.36452 5.15654,0.30396 8.868766,-1.10825 11.964516,-4.55147 2.78942,-3.1025 3.22817,-7.18774 1.07511,-10.01056 -0.85312,-1.11848 -2.9882,-2.36551 -4.80163,-2.80444 l -0.913186,-0.22105 0.14959,2.75798 c 0.201056,3.7072 -0.67693,5.46368 -3.46432,6.93057 -1.7769,0.93514 -2.14366,0.9979 -5.10469,0.87379 -2.382804,-0.0999 -3.498594,-0.31379 -4.408534,-0.84522 -2.24464,-1.31096 -3.59784,-4.36277 -2.06399,-4.65487 0.35573,-0.0677 0.73441,0.29411 1.01387,0.9688 0.60778,1.46731 2.71892,3.45112 4.18889,3.93626 3.013734,0.99462 7.320894,-0.525 8.609224,-3.03745 0.81381,-1.58708 0.95856,-4.64309 0.29844,-6.30072 l -0.40073,-1.0063 -4.31652,0.14884 c -3.803154,0.13109 -4.784254,0.30395 -8.249244,1.45327 z m -54.80478,0.97977 c 0,1.13524 1.37766,3.34267 2.79909,4.48497 3.69373,2.96834 6.78875,3.38949 12.08569,1.64451 1.6867,-0.55566 2.98457,-1.14325 2.88417,-1.3057 -0.26836,-0.4342 -4.89255,-2.71163 -7.5384,-3.71267 -2.72067,-1.02937 -6.23111,-1.77768 -8.55486,-1.82365 -1.48105,-0.0293 -1.67569,0.0534 -1.67569,0.71254 z m -4.81713,-0.22003 c -3.84896,1.14304 -6.09537,3.84986 -6.11124,7.36378 -0.0193,4.27383 3.38849,6.6924 11.06312,7.85167 6.43914,0.97264 12.12259,-0.18994 22.61941,-4.62697 1.55223,-0.65613 5.36223,-2.24331 8.46667,-3.5271 3.10444,-1.28376 5.75465,-2.44447 5.88935,-2.57934 0.13469,-0.13486 -0.91766,-1.08038 -2.33856,-2.10111 l -2.58346,-1.85589 -5.77533,2.69649 c -3.17643,1.48312 -5.81975,2.73308 -5.87404,2.77777 -0.0543,0.0447 0.94263,0.75968 2.21537,1.58892 1.27275,0.82923 2.24511,1.57667 2.16081,1.66094 -0.0843,0.0843 -1.25056,-0.57636 -2.59169,-1.46815 l -2.43841,-1.62144 -1.62918,0.72066 c -2.97595,1.31642 -7.29801,2.21145 -9.56221,1.98024 -4.54656,-0.46429 -9.70917,-5.01671 -9.74407,-8.59239 -0.009,-0.97374 -1.12333,-1.05301 -3.76654,-0.26808 z" />
  </g>
</svg>
